<svg width="33" height="33" viewBox="0 0 45 43" fill="none" xmlns="http://www.w3.org/2000/svg">
<circle cx="20" cy="20" r="20" fill="#0D3571"/>
<path d="M27.8324 16.5H25.6307C25.5005 15.8667 25.2726 15.3104 24.9471 14.831C24.6275 14.3516 24.2369 13.9491 23.7752 13.6236C23.3195 13.2921 22.8134 13.0436 22.2571 12.8778C21.7008 12.7121 21.1207 12.6293 20.517 12.6293C19.4162 12.6293 18.4189 12.9074 17.5252 13.4638C16.6374 14.0201 15.9302 14.8398 15.4034 15.9229C14.8826 17.006 14.6222 18.3348 14.6222 19.9091C14.6222 21.4834 14.8826 22.8121 15.4034 23.8952C15.9302 24.9783 16.6374 25.7981 17.5252 26.3544C18.4189 26.9107 19.4162 27.1889 20.517 27.1889C21.1207 27.1889 21.7008 27.1061 22.2571 26.9403C22.8134 26.7746 23.3195 26.529 23.7752 26.2035C24.2369 25.872 24.6275 25.4666 24.9471 24.9872C25.2726 24.5019 25.5005 23.9455 25.6307 23.3182H27.8324C27.6667 24.2474 27.3648 25.079 26.9268 25.8129C26.4889 26.5468 25.9444 27.1712 25.2933 27.6861C24.6423 28.1951 23.9113 28.5827 23.1005 28.8491C22.2956 29.1154 21.4344 29.2486 20.517 29.2486C18.9664 29.2486 17.5874 28.8698 16.38 28.1122C15.1726 27.3546 14.2227 26.2775 13.5302 24.8807C12.8377 23.4839 12.4915 21.8267 12.4915 19.9091C12.4915 17.9915 12.8377 16.3343 13.5302 14.9375C14.2227 13.5407 15.1726 12.4635 16.38 11.706C17.5874 10.9484 18.9664 10.5696 20.517 10.5696C21.4344 10.5696 22.2956 10.7028 23.1005 10.9691C23.9113 11.2354 24.6423 11.6261 25.2933 12.141C25.9444 12.65 26.4889 13.2714 26.9268 14.0053C27.3648 14.7333 27.6667 15.5649 27.8324 16.5Z" fill="white"/>
</svg>
