<svg width="25" height="24" viewBox="0 0 25 24" fill="none" xmlns="http://www.w3.org/2000/svg">
<path d="M12.2168 0C5.5928 0 0.216797 5.376 0.216797 12C0.216797 18.624 5.5928 24 12.2168 24C18.8408 24 24.2168 18.624 24.2168 12C24.2168 5.376 18.8408 0 12.2168 0ZM13.4168 20.4H11.0168V18H13.4168V20.4ZM15.9008 11.1L14.8208 12.204C13.9568 13.08 13.4168 13.8 13.4168 15.6H11.0168V15C11.0168 13.68 11.5568 12.48 12.4208 11.604L13.9088 10.092C14.3528 9.66 14.6168 9.06 14.6168 8.4C14.6168 7.08 13.5368 6 12.2168 6C10.8968 6 9.8168 7.08 9.8168 8.4H7.4168C7.4168 5.748 9.5648 3.6 12.2168 3.6C14.8688 3.6 17.0168 5.748 17.0168 8.4C17.0168 9.456 16.5848 10.416 15.9008 11.1Z" fill="#364958"/>
</svg>
