<svg width="40" height="23" viewBox="0 0 40 23" fill="none" xmlns="http://www.w3.org/2000/svg">
<path d="M31.6667 19.7143V23H11.6667V19.7143C11.6667 19.7143 11.6667 13.1429 21.6667 13.1429C31.6667 13.1429 31.6667 19.7143 31.6667 19.7143ZM26.6667 4.92857C26.6667 3.95379 26.3734 3.0009 25.824 2.19041C25.2746 1.37991 24.4937 0.748199 23.5801 0.375167C22.6665 0.00213548 21.6611 -0.0954667 20.6912 0.0947033C19.7213 0.284873 18.8304 0.754274 18.1311 1.44355C17.4319 2.13282 16.9557 3.01101 16.7627 3.96706C16.5698 4.92311 16.6688 5.91408 17.0473 6.81466C17.4257 7.71523 18.0666 8.48497 18.8888 9.02653C19.7111 9.56809 20.6778 9.85714 21.6667 9.85714C22.9927 9.85714 24.2645 9.33789 25.2022 8.4136C26.1399 7.48931 26.6667 6.23571 26.6667 4.92857ZM32 13.2414C32.9111 14.0699 33.6455 15.069 34.1606 16.1804C34.6757 17.2917 34.9611 18.4931 35 19.7143V23H40V19.7143C40 19.7143 40 14.0464 32 13.2414ZM30 1.87533e-06C29.4964 0.000298926 28.996 0.0778952 28.5167 0.230002C29.4918 1.60831 30.0146 3.24823 30.0146 4.92857C30.0146 6.60892 29.4918 8.24884 28.5167 9.62714C28.996 9.77925 29.4964 9.85685 30 9.85714C31.3261 9.85714 32.5979 9.33789 33.5355 8.4136C34.4732 7.48931 35 6.23571 35 4.92857C35 3.62143 34.4732 2.36783 33.5355 1.44355C32.5979 0.519261 31.3261 1.87533e-06 30 1.87533e-06ZM13.3333 8.21429H8.33333V3.28572H5V8.21429H0V11.5H5V16.4286H8.33333V11.5H13.3333V8.21429Z" fill="#364958"/>
</svg>
