<svg width="27" height="31" viewBox="0 0 27 31" fill="none" xmlns="http://www.w3.org/2000/svg">
<path d="M7.25 12.6H19.75M7.25 24.2H19.75M7.25 18.4H13.5M1 29.13V1.87C1 1.63926 1.09877 1.41797 1.27459 1.25482C1.4504 1.09166 1.68886 1 1.9375 1H20.1437C20.3923 1.0002 20.6306 1.092 20.8062 1.2552L25.725 5.8198C25.8124 5.90085 25.8818 5.99716 25.929 6.10317C25.9762 6.20918 26.0003 6.3228 26 6.4375V29.13C26 29.2443 25.9757 29.3574 25.9286 29.4629C25.8815 29.5685 25.8125 29.6644 25.7254 29.7452C25.6384 29.826 25.535 29.8901 25.4213 29.9338C25.3075 29.9775 25.1856 30 25.0625 30H1.9375C1.81439 30 1.69248 29.9775 1.57873 29.9338C1.46499 29.8901 1.36164 29.826 1.27459 29.7452C1.18753 29.6644 1.11848 29.5685 1.07136 29.4629C1.02425 29.3574 1 29.2443 1 29.13Z" stroke="#364958" stroke-width="1.5" stroke-linecap="round" stroke-linejoin="round"/>
<path d="M19.75 1V5.93C19.75 6.16074 19.8488 6.38203 20.0246 6.54518C20.2004 6.70834 20.4389 6.8 20.6875 6.8H26" stroke="#364958" stroke-width="1.5" stroke-linecap="round" stroke-linejoin="round"/>
</svg>
