<svg width="25" height="25" viewBox="0 0 40 40" fill="none" xmlns="http://www.w3.org/2000/svg">
<path d="M37.1429 9.07143H37.6429V8.57143V2.85714V2.35714H37.1429H2.85714H2.35714V2.85714V8.57143V9.07143H2.85714H37.1429ZM11.4286 16.6429H10.9286V17.1429V22.8571V23.3571H11.4286H37.1429H37.6429V22.8571V17.1429V16.6429H37.1429H11.4286ZM2.85714 30.9286H2.35714V31.4286V37.1429V37.6429H2.85714H37.1429H37.6429V37.1429V31.4286V30.9286H37.1429H2.85714ZM0.5 0.5H39.5V10.9286H0.5V0.5ZM9.07143 25.2143V14.7857H39.5V25.2143H9.07143ZM0.5 39.5V29.0714H39.5V39.5H0.5Z" fill="#364958" stroke="#364958"/>
</svg>
