<svg width="31" height="26" viewBox="0 0 41 36" fill="none" xmlns="http://www.w3.org/2000/svg">
<path d="M40.0217 31.3425L40.1796 4.12076C40.192 1.9819 38.2022 0.220335 35.7578 0.20616L4.64719 0.025743C2.20279 0.0115674 0.19267 1.74994 0.180267 3.88879L0.0224021 31.1106C0.00999843 33.2494 1.99982 35.011 4.44422 35.0252L35.5548 35.2056C37.9992 35.2197 40.0093 33.4814 40.0217 31.3425ZM35.5774 31.3167L28.9108 31.2781L29.0687 4.05632L35.7352 4.09498L35.5774 31.3167ZM24.4664 31.2523L15.5777 31.2008L15.7356 3.979L24.6243 4.03055L24.4664 31.2523ZM4.62464 3.91457L11.2912 3.95323L11.1333 31.175L4.46677 31.1363L4.62464 3.91457Z" fill="#364958"/>
</svg>
