<svg width="25" height="25" viewBox="0 0 15 15" fill="none" xmlns="http://www.w3.org/2000/svg">
<g clip-path="url(#clip0_77_867)">
<path d="M6.80436 2.10417C7.70692 2.10334 8.58944 2.37023 9.34029 2.87106C10.0911 3.37189 10.6766 4.08417 11.0225 4.91778C11.3685 5.7514 11.4594 6.6689 11.2839 7.55421C11.1083 8.43952 10.6741 9.25287 10.0362 9.89137C9.39827 10.5299 8.58532 10.9648 7.70016 11.1412C6.81501 11.3176 5.89743 11.2275 5.0635 10.8823C4.22957 10.5371 3.51676 9.95228 3.01524 9.20189C2.51372 8.4515 2.24603 7.56922 2.24603 6.66667C2.2515 5.45902 2.73338 4.30234 3.58693 3.44801C4.44048 2.59367 5.59673 2.11074 6.80436 2.10417ZM6.80436 1.25C5.73305 1.25 4.68579 1.56768 3.79503 2.16287C2.90426 2.75806 2.20999 3.60403 1.80002 4.5938C1.39004 5.58356 1.28277 6.67268 1.49178 7.72341C1.70078 8.77414 2.21667 9.73929 2.9742 10.4968C3.73174 11.2544 4.69689 11.7703 5.74763 11.9793C6.79836 12.1883 7.88747 12.081 8.87723 11.671C9.867 11.261 10.713 10.5668 11.3082 9.67601C11.9033 8.78524 12.221 7.73798 12.221 6.66667C12.221 5.23008 11.6503 3.85233 10.6345 2.83651C9.6187 1.82068 8.24095 1.25 6.80436 1.25Z" fill="#364958"/>
<path d="M14.5834 13.8707L11.5126 10.7791L10.9209 11.3666L13.9917 14.4582C14.0303 14.4971 14.0762 14.5279 14.1267 14.5491C14.1772 14.5702 14.2313 14.5812 14.2861 14.5814C14.3408 14.5816 14.3951 14.571 14.4457 14.5502C14.4964 14.5294 14.5425 14.4989 14.5813 14.4603C14.6202 14.4217 14.651 14.3759 14.6722 14.3254C14.6933 14.2749 14.7043 14.2207 14.7045 14.1659C14.7047 14.1112 14.6941 14.0569 14.6733 14.0063C14.6525 13.9556 14.622 13.9096 14.5834 13.8707Z" fill="#364958"/>
</g>
<defs>
<clipPath id="clip0_77_867">
<rect width="15" height="15" fill="white"/>
</clipPath>
</defs>
</svg>
