<svg width="28" height="28" viewBox="0 0 28 28" fill="none" xmlns="http://www.w3.org/2000/svg">
<path d="M14.3145 13.6992L13.5762 9.81641H19.373L14.3145 13.6992ZM14 0C15.2852 0 16.5247 0.164062 17.7188 0.492188C18.9128 0.820312 20.0247 1.29427 21.0547 1.91406C22.0846 2.53385 23.028 3.26302 23.8848 4.10156C24.7415 4.9401 25.4753 5.88346 26.0859 6.93164C26.6966 7.97982 27.166 9.09635 27.4941 10.2812C27.8223 11.4661 27.9909 12.7057 28 14C28 15.2852 27.8359 16.5247 27.5078 17.7188C27.1797 18.9128 26.7057 20.0247 26.0859 21.0547C25.4661 22.0846 24.737 23.028 23.8984 23.8848C23.0599 24.7415 22.1165 25.4753 21.0684 26.0859C20.0202 26.6966 18.9036 27.166 17.7188 27.4941C16.5339 27.8223 15.2943 27.9909 14 28C12.7148 28 11.4753 27.8359 10.2812 27.5078C9.08724 27.1797 7.97526 26.7057 6.94531 26.0859C5.91536 25.4661 4.97201 24.737 4.11523 23.8984C3.25846 23.0599 2.52474 22.1165 1.91406 21.0684C1.30339 20.0202 0.833984 18.9036 0.505859 17.7188C0.177734 16.5339 0.00911458 15.2943 0 14C0 12.7148 0.164062 11.4753 0.492188 10.2812C0.820312 9.08724 1.29427 7.97526 1.91406 6.94531C2.53385 5.91536 3.26302 4.97201 4.10156 4.11523C4.9401 3.25846 5.88346 2.52474 6.93164 1.91406C7.97982 1.30339 9.09635 0.833984 10.2812 0.505859C11.4661 0.177734 12.7057 0.00911458 14 0ZM3.48633 20.5078C4.42513 19.7695 5.35938 19.0358 6.28906 18.3066C7.21875 17.5775 8.15755 16.8346 9.10547 16.0781C9.5612 15.7227 10.0215 15.3672 10.4863 15.0117C10.9512 14.6562 11.4023 14.2826 11.8398 13.8906L11.9355 13.7949V13.6992C11.9082 13.4805 11.8717 13.2572 11.8262 13.0293C11.7806 12.8014 11.7396 12.5781 11.7031 12.3594L9.58398 2.31055C8.37174 2.76628 7.26888 3.38607 6.27539 4.16992C5.2819 4.95378 4.43424 5.86068 3.73242 6.89062C3.0306 7.92057 2.48372 9.03255 2.0918 10.2266C1.69987 11.4206 1.50391 12.6738 1.50391 13.9863C1.50391 15.1348 1.65885 16.2559 1.96875 17.3496C2.27865 18.4434 2.73438 19.4824 3.33594 20.4668L3.48633 20.5078ZM16.6387 25.293C16.429 24.3086 16.224 23.3333 16.0234 22.3672C15.8229 21.401 15.6133 20.4167 15.3945 19.4141C15.2578 18.7578 15.1211 18.1107 14.9844 17.4727C14.8477 16.8346 14.7246 16.1829 14.6152 15.5176C14.6061 15.472 14.6016 15.4264 14.6016 15.3809C14.6016 15.3353 14.597 15.2897 14.5879 15.2441C14.5879 14.998 14.6335 14.8021 14.7246 14.6562C14.8158 14.5104 14.9479 14.3509 15.1211 14.1777C15.2396 14.0501 15.3717 13.9362 15.5176 13.8359C15.6634 13.7357 15.8047 13.6309 15.9414 13.5215C16.2604 13.2663 16.5749 13.0156 16.8848 12.7695C17.1947 12.5234 17.5091 12.2728 17.8281 12.0176C18.8034 11.252 19.7741 10.4954 20.7402 9.74805C21.7064 9.00065 22.6725 8.23503 23.6387 7.45117L11.0469 2.87109C11.2839 3.98307 11.5163 5.08594 11.7441 6.17969C11.972 7.27344 12.1999 8.38086 12.4277 9.50195C12.5645 10.1764 12.7012 10.8464 12.8379 11.5117C12.9746 12.1771 13.1068 12.847 13.2344 13.5215C13.2435 13.5671 13.248 13.6126 13.248 13.6582C13.248 13.7038 13.2526 13.7493 13.2617 13.7949C13.2617 14.0319 13.2207 14.2233 13.1387 14.3691C13.0566 14.515 12.9336 14.6654 12.7695 14.8203C12.6419 14.9479 12.5052 15.0664 12.3594 15.1758C12.2135 15.2852 12.0677 15.3991 11.9219 15.5176L11.1289 16.1738C10.8646 16.3926 10.5911 16.6068 10.3086 16.8164C9.40625 17.5273 8.51302 18.2292 7.62891 18.9219C6.74479 19.6146 5.84245 20.3164 4.92188 21.0273L16.6387 25.293ZM18.1016 25.8125C18.4297 25.6849 18.7487 25.5573 19.0586 25.4297C19.3685 25.3021 19.6875 25.1517 20.0156 24.9785C21.0182 24.4408 21.9206 23.7799 22.7227 22.9961C23.5247 22.2122 24.2083 21.3464 24.7734 20.3984C25.3385 19.4505 25.7715 18.4297 26.0723 17.3359C26.373 16.2422 26.5234 15.1302 26.5234 14C26.5234 12.9609 26.3958 11.9401 26.1406 10.9375C25.8854 9.9349 25.5072 8.97331 25.0059 8.05273C24.0033 8.83659 23.0098 9.61589 22.0254 10.3906C21.041 11.1654 20.0475 11.9538 19.0449 12.7559C18.5436 13.1478 18.0332 13.5352 17.5137 13.918C16.9941 14.3008 16.4974 14.7155 16.0234 15.1621L15.9414 15.2441V15.3535C16.0052 15.9004 16.1055 16.4746 16.2422 17.0762C16.3789 17.6777 16.5065 18.252 16.625 18.7988C16.862 19.9746 17.1035 21.1413 17.3496 22.2988C17.5957 23.4564 17.8464 24.6276 18.1016 25.8125ZM14.2051 18.7715L15.4219 24.1309L6.37109 20.8359L9.36523 18.7715H14.2051Z" fill="black"/>
</svg>
