<svg width="33" height="33" viewBox="0 0 45 43" fill="none" xmlns="http://www.w3.org/2000/svg">
<circle cx="20" cy="20" r="20" fill="#3E9409"/>
<path d="M13.2017 29V10.8182H19.5582C20.8248 10.8182 21.8694 11.0372 22.6921 11.4751C23.5148 11.9072 24.1274 12.4902 24.5298 13.2241C24.9323 13.9521 25.1335 14.7599 25.1335 15.6477C25.1335 16.429 24.9944 17.0741 24.7163 17.5831C24.444 18.0921 24.083 18.4946 23.6332 18.7905C23.1893 19.0864 22.7069 19.3054 22.1861 19.4474V19.625C22.7424 19.6605 23.3017 19.8558 23.864 20.2109C24.4263 20.5661 24.8968 21.075 25.2756 21.7379C25.6544 22.4008 25.8438 23.2116 25.8438 24.1705C25.8438 25.0819 25.6366 25.9016 25.2223 26.6296C24.808 27.3576 24.154 27.9347 23.2603 28.3608C22.3666 28.7869 21.2036 29 19.7713 29H13.2017ZM15.4034 27.0469H19.7713C21.2095 27.0469 22.2305 26.7687 22.8342 26.2124C23.4438 25.6501 23.7486 24.9695 23.7486 24.1705C23.7486 23.5549 23.5917 22.9867 23.2781 22.4659C22.9644 21.9392 22.5175 21.5189 21.9375 21.2053C21.3575 20.8857 20.6709 20.7259 19.8778 20.7259H15.4034V27.0469ZM15.4034 18.8082H19.4872C20.1501 18.8082 20.7479 18.678 21.2805 18.4176C21.8191 18.1572 22.2453 17.7902 22.5589 17.3168C22.8786 16.8433 23.0384 16.2869 23.0384 15.6477C23.0384 14.8487 22.7602 14.171 22.2038 13.6147C21.6475 13.0524 20.7656 12.7713 19.5582 12.7713H15.4034V18.8082Z" fill="white"/>
</svg>
