<svg width="27" height="27" viewBox="0 0 27 27" fill="none" xmlns="http://www.w3.org/2000/svg">
<path d="M26.0168 23.6495L25.7224 23.3803C24.8873 22.6091 24.1564 21.7247 23.5493 20.7511C22.8864 19.4073 22.489 17.9399 22.3806 16.4348V12.002C22.3863 9.63802 21.559 7.35326 20.054 5.57697C18.549 3.80067 16.4701 2.65511 14.2077 2.35553V1.19795C14.2077 0.880237 14.0859 0.575532 13.8691 0.350873C13.6524 0.126213 13.3584 0 13.0519 0C12.7453 0 12.4513 0.126213 12.2346 0.350873C12.0178 0.575532 11.8961 0.880237 11.8961 1.19795V2.37347C9.65393 2.69466 7.60007 3.84714 6.11489 5.61747C4.62971 7.38779 3.81385 9.65599 3.81841 12.002V16.4348C3.70997 17.9399 3.3126 19.4073 2.64962 20.7511C2.053 21.7223 1.33381 22.6065 0.511159 23.3803L0.216797 23.6495V26.18H26.0168V23.6495Z" fill="#364958"/>
</svg>
