<svg width="25" height="24" viewBox="0 0 25 24" fill="none" xmlns="http://www.w3.org/2000/svg">
<path d="M12.2168 7.82609C11.3691 7.82609 10.5404 8.07088 9.83558 8.52952C9.13073 8.98815 8.58137 9.64003 8.25697 10.4027C7.93257 11.1654 7.84769 12.0046 8.01307 12.8143C8.17845 13.624 8.58666 14.3677 9.18608 14.9514C9.7855 15.5351 10.5492 15.9327 11.3806 16.0937C12.212 16.2548 13.0738 16.1721 13.857 15.8562C14.6402 15.5403 15.3096 15.0053 15.7805 14.3189C16.2515 13.6325 16.5029 12.8255 16.5029 12C16.4995 10.894 16.0468 9.83429 15.2438 9.05225C14.4407 8.2702 13.3525 7.82939 12.2168 7.82609ZM21.4705 12C21.4682 12.39 21.4389 12.7794 21.3826 13.1656L23.9912 15.1544C24.1048 15.2458 24.1814 15.3735 24.2072 15.5148C24.233 15.656 24.2064 15.8016 24.1321 15.9256L21.6644 20.0744C21.5894 20.1973 21.4723 20.2904 21.3337 20.3374C21.1952 20.3845 21.044 20.3824 20.9068 20.3317L17.8396 19.1317C17.2009 19.6106 16.502 20.0081 15.7598 20.3144L15.3012 23.4856C15.2755 23.6276 15.2 23.7566 15.0875 23.8504C14.975 23.9442 14.8326 23.9971 14.6845 24H9.74908C9.6037 23.9972 9.46358 23.9466 9.35158 23.8563C9.23958 23.766 9.16232 23.6414 9.13242 23.5028L8.67381 20.3317C7.92957 20.0289 7.23013 19.6307 6.59399 19.1478L3.52676 20.3478C3.38965 20.3986 3.23853 20.4008 3.09997 20.3538C2.96142 20.3069 2.84429 20.2139 2.76919 20.0911L0.301479 15.9428C0.2272 15.8189 0.200589 15.6733 0.226401 15.532C0.252214 15.3907 0.328769 15.263 0.442384 15.1717L3.051 13.1828C2.99536 12.7908 2.96601 12.3957 2.96314 12C2.96537 11.61 2.99472 11.2206 3.051 10.8344L0.442384 8.84556C0.328769 8.75421 0.252214 8.62648 0.226401 8.48522C0.200589 8.34395 0.2272 8.19835 0.301479 8.07443L2.76919 3.92557C2.84421 3.80274 2.9613 3.70962 3.09986 3.66257C3.23843 3.61553 3.38959 3.61757 3.52676 3.66835L6.59399 4.86835C7.23268 4.3894 7.93162 3.99192 8.67381 3.68557L9.13242 0.514435C9.15809 0.372391 9.23361 0.243436 9.34609 0.149606C9.45857 0.0557758 9.60101 0.00289499 9.74908 0H14.6845C14.8299 0.00275558 14.97 0.0534215 15.082 0.143727C15.194 0.234032 15.2713 0.358643 15.3012 0.497217L15.7598 3.66835C16.505 3.97094 17.2053 4.36907 17.8423 4.85217L20.9068 3.65217C21.0439 3.60135 21.1951 3.59923 21.3336 3.64618C21.4722 3.69313 21.5893 3.78614 21.6644 3.90887L24.1321 8.05774C24.2064 8.18166 24.233 8.32726 24.2072 8.46852C24.1814 8.60979 24.1048 8.73751 23.9912 8.82887L21.3826 10.8177C21.4382 11.2095 21.4676 11.6045 21.4705 12Z" fill="#364958"/>
</svg>
